<svg width="30" height="30" xmlns="http://www.w3.org/2000/svg" stroke="null" style="vector-effect: non-scaling-stroke;">
 <title stroke="null" style="vector-effect: non-scaling-stroke;"/>

 <g stroke="null">
  <title stroke="null">background</title>
  <rect stroke="null" fill="none" id="canvas_background" height="32" width="32" y="-1" x="-1"/>
 </g>
 <g stroke="null">
  <title stroke="null">Layer 1</title>
  <ellipse stroke="null" ry="14.525692" rx="14.940712" id="svg_3" cy="15.288042" cx="14.994071" opacity="0.5" stroke-width="null" fill="#ffffff"/>
  <polygon stroke="null" id="svg_1" points="24.002651508897543,13.701604843139648 24.002651508897543,11.741130828857422 22.06852751597762,11.741130828857422 22.06852751597762,13.701604843139648 20.1344035230577,13.701604843139648 20.1344035230577,15.662078857421875 22.06852751597762,15.662078857421875 22.06852751597762,17.6225528717041 24.002651508897543,17.6225528717041 24.002651508897543,15.662078857421875 25.936775501817465,15.662078857421875 25.936775501817465,13.701604843139648 24.002651508897543,13.701604843139648 "/>
  <path stroke="null" id="svg_2" d="m10.805473,13.803058l0,2.955853l4.675775,0a4.901553,4.901553 0 1 1 -1.192273,-4.961419l2.090123,-2.090123a7.939313,7.939313 0 1 0 2.165399,4.095689l-7.739024,0z"/>
 </g>
</svg>