<svg width="32" height="32" xmlns="http://www.w3.org/2000/svg">

 <g>
  <title>background</title>
  <rect fill="none" id="canvas_background" height="34" width="34" y="-1" x="-1"/>
 </g>
 <g>
  <title>Layer 1</title>
  <ellipse stroke="null" ry="15.915652" rx="15.968353" id="svg_3" cy="16" cx="15.999999" stroke-opacity="null" stroke-width="null" fill="#ffffff"/>
  <path stroke="null" id="svg_1" d="m24.358378,24.836559l0,-6.959511c0,-3.72915 -1.767797,-5.464322 -4.12486,-5.464322c-1.902053,0 -2.754608,1.178152 -3.229468,2.005153l0,-1.719879l-3.583655,0c0.047538,1.139332 0,12.138559 0,12.138559l3.583655,0l0,-6.778935c0,-0.361739 0.022986,-0.724655 0.118062,-0.98346c0.258587,-0.725243 0.848375,-1.475779 1.837798,-1.475779c1.297116,0 1.815335,1.112863 1.815335,2.744513l0,6.494249l3.583132,0l0,-0.000588zm-14.713358,-13.795501c1.249055,0 2.027952,-0.932876 2.027952,-2.098088c-0.022986,-1.190505 -0.778374,-2.096323 -2.003921,-2.096323s-2.027429,0.90523 -2.027429,2.096323c0,1.165212 0.777852,2.098088 1.980936,2.098088l0.022463,0zm1.791827,13.795501l0,-12.138559l-3.583132,0l0,12.138559l3.583132,0z"/>
 </g>
</svg>