<svg width="24" height="24" xmlns="http://www.w3.org/2000/svg">

 <g>
  <title>background</title>
  <rect fill="none" id="canvas_background" height="402" width="582" y="-1" x="-1"/>
 </g>
 <g>
  <title>Layer 1</title>
  <ellipse stroke="#000" ry="12.134384" rx="12.154149" id="svg_3" cy="11.977765" cx="11.960476" stroke-width="0.5" fill="#fff"/>
  <path id="svg_2" d="m18.89,7.012c0.808,-0.496 1.343,-1.173 1.605,-2.034c-0.786,0.417 -1.569,0.703 -2.351,0.861c-0.703,-0.756 -1.593,-1.14 -2.66,-1.14c-1.043,0 -1.924,0.366 -2.643,1.078c-0.715,0.717 -1.076,1.588 -1.076,2.605c0,0.309 0.039,0.585 0.117,0.819c-3.076,-0.105 -5.622,-1.381 -7.628,-3.837c-0.34,0.601 -0.51,1.213 -0.51,1.846c0,1.301 0.549,2.332 1.645,3.089c-0.625,-0.053 -1.176,-0.211 -1.645,-0.47c0,0.929 0.273,1.705 0.82,2.388c0.549,0.676 1.254,1.107 2.115,1.291c-0.312,0.08 -0.641,0.118 -0.979,0.118c-0.312,0 -0.533,-0.026 -0.664,-0.083c0.23,0.757 0.664,1.371 1.291,1.841c0.625,0.472 1.344,0.721 2.152,0.743c-1.332,1.045 -2.855,1.562 -4.578,1.562c-0.422,0 -0.721,-0.006 -0.902,-0.038c1.697,1.102 3.586,1.649 5.676,1.649c2.139,0 4.029,-0.542 5.674,-1.626c1.645,-1.078 2.859,-2.408 3.639,-3.974c0.784,-1.564 1.172,-3.192 1.172,-4.892l0,-0.468c0.758,-0.57 1.371,-1.212 1.84,-1.921c-0.68,0.293 -1.383,0.492 -2.11,0.593z"/>
 </g>
</svg>